# xmcd
#
# Track frame offsets:
# 150
# 20063
# 37763
# 51338
# 67396
# 81118
# 98509
# 116886
# 132761
# 149899
# 166024
# 184399
# 206088
# 221908
# 242610
# 263010
# 281385
# 300030
#
# Disc length: 4196 seconds
#
#
# Revision: 0
# Processed by: cddbd v1.4PL0 Copyright (c) Steve Scherf et al.
# Submitted via: FreeRIP 2.20 
#
DISCID=09106212
DTITLE=Los bukis - La super colección
DYEAR=1991
DGENRE=Folklore
TTITLE0=Tu carcel
TTITLE1=Tus Mentiras
TTITLE2=El celoso
TTITLE3=Si me recuerdas
TTITLE4=A donde vayas
TTITLE5=Me volvi acordar de ti
TTITLE6=Si ya no te vuelvo a ver
TTITLE7=Morenita
TTITLE8=Aquella
TTITLE9=Navidad son ti
TTITLE10=Ladron de buena Suerte
TTITLE11=Que lastima
TTITLE12=Y ahora que
TTITLE13=Me dio coraje
TTITLE14=Como fui a enamorame de ti
TTITLE15=Una mujer como tu
TTITLE16=Tu ingratitud
TTITLE17=Mi mayor necesidad
EXTD=
EXTT0=
EXTT1=
EXTT2=
EXTT3=
EXTT4=
EXTT5=
EXTT6=
EXTT7=
EXTT8=
EXTT9=
EXTT10=
EXTT11=
EXTT12=
EXTT13=
EXTT14=
EXTT15=
EXTT16=
EXTT17=
PLAYORDER=
